<svg width="52" height="53" viewBox="0 0 52 53" fill="none" xmlns="http://www.w3.org/2000/svg">
<path d="M0 16C0 7.16345 7.16344 0 16 0L36 0C44.8366 0 52 7.16344 52 16V36.9428C52 45.7793 44.8366 52.9428 36 52.9428H16C7.16344 52.9428 0 45.7793 0 36.9428L0 16Z" fill="#FDFDFC"/>
<g filter="url(#filter0_d_469_3)">
<path fill-rule="evenodd" clip-rule="evenodd" d="M41.982 17.4527C41.994 17.4967 42 17.5417 42 17.5867V24.6577C42 24.7487 41.9759 24.838 41.9303 24.9167C41.8846 24.9954 41.819 25.0606 41.74 25.1057L35.806 28.5227V35.2947C35.8059 35.3853 35.782 35.4742 35.7368 35.5527C35.6915 35.6311 35.6264 35.6963 35.548 35.7417L23.16 42.8737C23.131 42.8897 23.1 42.8997 23.07 42.9107C23.058 42.9147 23.047 42.9217 23.035 42.9257C22.9485 42.9484 22.8575 42.9484 22.771 42.9257C22.756 42.9217 22.744 42.9137 22.73 42.9087C22.702 42.8987 22.672 42.8887 22.645 42.8737L10.259 35.7417C10.1804 35.6964 10.1151 35.6313 10.0697 35.5529C10.0242 35.4744 10.0002 35.3854 10 35.2947V14.0817C10 14.0357 10.006 13.9907 10.018 13.9467C10.022 13.9317 10.031 13.9187 10.036 13.9037C10.046 13.8767 10.055 13.8487 10.069 13.8237C10.079 13.8067 10.093 13.7937 10.104 13.7777C10.119 13.7577 10.133 13.7357 10.15 13.7177C10.165 13.7027 10.184 13.6917 10.201 13.6787C10.22 13.6637 10.236 13.6467 10.258 13.6347L16.452 10.0687C16.5304 10.0237 16.6191 10 16.7095 10C16.7999 10 16.8886 10.0237 16.967 10.0687L23.161 13.6347C23.182 13.6477 23.2 13.6637 23.218 13.6787C23.235 13.6917 23.254 13.7027 23.268 13.7167C23.287 13.7367 23.3 13.7567 23.315 13.7777C23.326 13.7937 23.341 13.8067 23.35 13.8237C23.365 13.8487 23.373 13.8767 23.384 13.9037C23.389 13.9187 23.398 13.9317 23.401 13.9477C23.4131 13.9913 23.4195 14.0364 23.42 14.0817V27.3317L28.58 24.3597V17.5867C28.5805 17.5414 28.5869 17.4963 28.599 17.4527C28.603 17.4367 28.611 17.4227 28.617 17.4087C28.627 17.3817 28.636 17.3537 28.65 17.3287C28.66 17.3117 28.674 17.2987 28.685 17.2827C28.7 17.2627 28.713 17.2407 28.731 17.2227C28.746 17.2077 28.765 17.1977 28.781 17.1847C28.801 17.1687 28.818 17.1517 28.838 17.1397L35.033 13.5737C35.1113 13.5286 35.2001 13.5048 35.2905 13.5048C35.3809 13.5048 35.4697 13.5286 35.548 13.5737L41.742 17.1397C41.764 17.1527 41.78 17.1697 41.8 17.1837C41.816 17.1967 41.834 17.2077 41.85 17.2227C41.867 17.2407 41.88 17.2627 41.896 17.2827C41.907 17.2987 41.921 17.3127 41.93 17.3287C41.945 17.3537 41.954 17.3817 41.964 17.4087C41.97 17.4237 41.978 17.4367 41.982 17.4527ZM40.968 24.3597V18.4797L38.8 19.7277L35.806 21.4517V27.3317L40.968 24.3597ZM34.774 34.9967V29.1127L31.829 30.7947L23.419 35.5947V41.5347L34.774 34.9967ZM11.032 14.9747V34.9967L22.387 41.5337V35.5957L16.455 32.2387L16.453 32.2367L16.45 32.2357C16.43 32.2237 16.414 32.2077 16.395 32.1927C16.379 32.1807 16.36 32.1697 16.346 32.1557L16.345 32.1537C16.328 32.1377 16.316 32.1177 16.302 32.0997C16.289 32.0827 16.274 32.0677 16.264 32.0497L16.263 32.0477C16.251 32.0277 16.244 32.0047 16.236 31.9827C16.227 31.9637 16.216 31.9457 16.211 31.9247C16.205 31.8997 16.204 31.8747 16.201 31.8487C16.198 31.8287 16.193 31.8107 16.193 31.7907V17.9457L13.2 16.2217L11.032 14.9747ZM16.71 11.1117L11.55 14.0817L16.709 17.0517L21.869 14.0817L16.71 11.1117ZM19.394 29.6487L22.387 27.9257V14.9747L20.22 16.2217L17.226 17.9457V30.8967L19.394 29.6487ZM35.29 14.6167L30.13 17.5867L35.29 20.5567L40.448 17.5867L35.29 14.6167ZM34.773 21.4517L31.779 19.7277L29.612 18.4797V24.3597L32.605 26.0827L34.773 27.3317V21.4517ZM22.901 34.7017L30.469 30.3817L34.252 28.2217L29.096 25.2537L23.16 28.6717L17.75 31.7867L22.901 34.7017Z" fill="#FF2D20"/>
</g>
<defs>
<filter id="filter0_d_469_3" x="6" y="10" width="40" height="40.9427" filterUnits="userSpaceOnUse" color-interpolation-filters="sRGB">
<feFlood flood-opacity="0" result="BackgroundImageFix"/>
<feColorMatrix in="SourceAlpha" type="matrix" values="0 0 0 0 0 0 0 0 0 0 0 0 0 0 0 0 0 0 127 0" result="hardAlpha"/>
<feOffset dy="4"/>
<feGaussianBlur stdDeviation="2"/>
<feComposite in2="hardAlpha" operator="out"/>
<feColorMatrix type="matrix" values="0 0 0 0 0 0 0 0 0 0 0 0 0 0 0 0 0 0 0.25 0"/>
<feBlend mode="normal" in2="BackgroundImageFix" result="effect1_dropShadow_469_3"/>
<feBlend mode="normal" in="SourceGraphic" in2="effect1_dropShadow_469_3" result="shape"/>
</filter>
</defs>
</svg>
